<svg width="30" height="30" viewBox="0 0 30 30" fill="#D4D4D4" xmlns="http://www.w3.org/2000/svg">
<path d="M15 2.5C12.5277 2.5 10.111 3.23311 8.05538 4.60663C5.99976 5.98015 4.39761 7.93238 3.45151 10.2165C2.50542 12.5005 2.25787 15.0139 2.74019 17.4386C3.2225 19.8634 4.41301 22.0907 6.16117 23.8388C7.90933 25.587 10.1366 26.7775 12.5614 27.2598C14.9861 27.7421 17.4995 27.4946 19.7836 26.5485C22.0676 25.6024 24.0199 24.0002 25.3934 21.9446C26.7669 19.889 27.5 17.4723 27.5 15C27.5 13.3585 27.1767 11.733 26.5485 10.2165C25.9203 8.69989 24.9996 7.3219 23.8388 6.16117C22.6781 5.00043 21.3001 4.07969 19.7836 3.45151C18.267 2.82332 16.6415 2.5 15 2.5ZM16.25 20C16.25 20.3315 16.1183 20.6495 15.8839 20.8839C15.6495 21.1183 15.3315 21.25 15 21.25C14.6685 21.25 14.3505 21.1183 14.1161 20.8839C13.8817 20.6495 13.75 20.3315 13.75 20V13.75C13.75 13.4185 13.8817 13.1005 14.1161 12.8661C14.3505 12.6317 14.6685 12.5 15 12.5C15.3315 12.5 15.6495 12.6317 15.8839 12.8661C16.1183 13.1005 16.25 13.4185 16.25 13.75V20ZM15 11.25C14.7528 11.25 14.5111 11.1767 14.3055 11.0393C14.1 10.902 13.9398 10.7068 13.8452 10.4784C13.7505 10.2499 13.7258 9.99861 13.774 9.75614C13.8223 9.51366 13.9413 9.29093 14.1161 9.11612C14.2909 8.9413 14.5137 8.82225 14.7561 8.77402C14.9986 8.72579 15.25 8.75054 15.4784 8.84515C15.7068 8.93976 15.902 9.09998 16.0393 9.30554C16.1767 9.5111 16.25 9.75277 16.25 10C16.25 10.3315 16.1183 10.6495 15.8839 10.8839C15.6495 11.1183 15.3315 11.25 15 11.25Z"/>
</svg>
