<svg width="30" height="30" viewBox="0 0 30 30" fill="#D4D4D4" xmlns="http://www.w3.org/2000/svg">
<path d="M26.25 7.50001H20V5.41251C19.9707 4.61229 19.6253 3.85634 19.0395 3.31038C18.4537 2.76442 17.6753 2.47301 16.875 2.50001H13.125C12.3247 2.47301 11.5463 2.76442 10.9605 3.31038C10.3747 3.85634 10.0293 4.61229 10 5.41251V7.50001H3.75C3.41848 7.50001 3.10054 7.63171 2.86612 7.86613C2.6317 8.10055 2.5 8.41849 2.5 8.75001C2.5 9.08153 2.6317 9.39948 2.86612 9.6339C3.10054 9.86832 3.41848 10 3.75 10H5V23.75C5 24.7446 5.39509 25.6984 6.09835 26.4017C6.80161 27.1049 7.75544 27.5 8.75 27.5H21.25C22.2446 27.5 23.1984 27.1049 23.9017 26.4017C24.6049 25.6984 25 24.7446 25 23.75V10H26.25C26.5815 10 26.8995 9.86832 27.1339 9.6339C27.3683 9.39948 27.5 9.08153 27.5 8.75001C27.5 8.41849 27.3683 8.10055 27.1339 7.86613C26.8995 7.63171 26.5815 7.50001 26.25 7.50001ZM12.5 20C12.5 20.3315 12.3683 20.6495 12.1339 20.8839C11.8995 21.1183 11.5815 21.25 11.25 21.25C10.9185 21.25 10.6005 21.1183 10.3661 20.8839C10.1317 20.6495 10 20.3315 10 20V15C10 14.6685 10.1317 14.3506 10.3661 14.1161C10.6005 13.8817 10.9185 13.75 11.25 13.75C11.5815 13.75 11.8995 13.8817 12.1339 14.1161C12.3683 14.3506 12.5 14.6685 12.5 15V20ZM12.5 5.41251C12.5 5.21251 12.7625 5.00001 13.125 5.00001H16.875C17.2375 5.00001 17.5 5.21251 17.5 5.41251V7.50001H12.5V5.41251ZM20 20C20 20.3315 19.8683 20.6495 19.6339 20.8839C19.3995 21.1183 19.0815 21.25 18.75 21.25C18.4185 21.25 18.1005 21.1183 17.8661 20.8839C17.6317 20.6495 17.5 20.3315 17.5 20V15C17.5 14.6685 17.6317 14.3506 17.8661 14.1161C18.1005 13.8817 18.4185 13.75 18.75 13.75C19.0815 13.75 19.3995 13.8817 19.6339 14.1161C19.8683 14.3506 20 14.6685 20 15V20Z"/>
</svg>
